# xmcd
#
# Track frame offsets: 
#        150
#        11482
#        24887
#        40035
#        50517
#        62505
#        73380
#        86475
#        98162
#        108950
#        121527
#        132670
#
# Disc length: 1916 seconds
#
# Revision: 2
# Processed by: cddbd v1.5.2PL0 Copyright (c) Steve Scherf et al.
# Submitted via: ExactAudioCopy v1.1
#
DISCID=94077a0c
DTITLE=B.B. King - Blues On Top Of The Blues
DYEAR=1968
DGENRE=Blues
TTITLE0=Heartbreaker (stereo)
TTITLE1=Losing Faith In You (stereo)
TTITLE2=Dance With Me (stereo)
TTITLE3=That's Wrong, Little Mama (stereo)
TTITLE4=Having My Say (stereo)
TTITLE5=I'm Not Wanted Anymore (stereo)
TTITLE6=Worried Dream (stereo)
TTITLE7=Paying The Cost To Be The Boss (stereo)
TTITLE8=Until I Found You (stereo)
TTITLE9=I'm Gonna Do What They Do To Me (stereo)
TTITLE10=Raining In My Heart (stereo)
TTITLE11=Now That You've Lost Me (stereo)
EXTD=
EXTT0=
EXTT1=
EXTT2=
EXTT3=
EXTT4=
EXTT5=
EXTT6=
EXTT7=
EXTT8=
EXTT9=
EXTT10=
EXTT11=
PLAYORDER=
